<svg width="41" height="40" viewBox="0 0 41 40" fill="none" xmlns="http://www.w3.org/2000/svg">
<rect x="0.738281" width="40" height="40" rx="4" fill="#F2F4F7"/>
<path d="M20.7364 15.193C18.0763 15.193 15.9294 17.3399 15.9294 20.0001C15.9294 22.6602 18.0763 24.8071 20.7364 24.8071C23.3966 24.8071 25.5435 22.6602 25.5435 20.0001C25.5435 17.3399 23.3966 15.193 20.7364 15.193ZM20.7364 23.1243C19.0161 23.1243 17.6122 21.7204 17.6122 20.0001C17.6122 18.2798 19.0161 16.8759 20.7364 16.8759C22.4568 16.8759 23.8607 18.2798 23.8607 20.0001C23.8607 21.7204 22.4568 23.1243 20.7364 23.1243ZM25.7403 13.8759C25.1193 13.8759 24.6177 14.3774 24.6177 14.9985C24.6177 15.6196 25.1193 16.1212 25.7403 16.1212C26.3614 16.1212 26.863 15.622 26.863 14.9985C26.8632 14.851 26.8343 14.705 26.7779 14.5687C26.7216 14.4324 26.6389 14.3085 26.5346 14.2043C26.4303 14.1 26.3065 14.0173 26.1702 13.9609C26.0339 13.9046 25.8878 13.8757 25.7403 13.8759ZM30.1068 20.0001C30.1068 18.7063 30.1185 17.4243 30.0458 16.1329C29.9732 14.6329 29.631 13.3016 28.5341 12.2048C27.4349 11.1055 26.106 10.7657 24.606 10.693C23.3122 10.6204 22.0302 10.6321 20.7388 10.6321C19.445 10.6321 18.163 10.6204 16.8716 10.693C15.3716 10.7657 14.0403 11.1079 12.9435 12.2048C11.8443 13.304 11.5044 14.6329 11.4318 16.1329C11.3591 17.4266 11.3708 18.7087 11.3708 20.0001C11.3708 21.2915 11.3591 22.5759 11.4318 23.8673C11.5044 25.3673 11.8466 26.6985 12.9435 27.7954C14.0427 28.8946 15.3716 29.2344 16.8716 29.3071C18.1653 29.3798 19.4474 29.368 20.7388 29.368C22.0325 29.368 23.3146 29.3798 24.606 29.3071C26.106 29.2344 27.4372 28.8923 28.5341 27.7954C29.6333 26.6962 29.9732 25.3673 30.0458 23.8673C30.1208 22.5759 30.1068 21.2938 30.1068 20.0001ZM28.0443 25.5266C27.8732 25.9532 27.6669 26.2719 27.3364 26.6001C27.006 26.9305 26.6896 27.1368 26.263 27.3079C25.0302 27.7977 22.1028 27.6876 20.7364 27.6876C19.37 27.6876 16.4403 27.7977 15.2075 27.3102C14.781 27.1391 14.4622 26.9329 14.1341 26.6024C13.8036 26.272 13.5974 25.9555 13.4263 25.529C12.9388 24.2938 13.0489 21.3665 13.0489 20.0001C13.0489 18.6337 12.9388 15.704 13.4263 14.4712C13.5974 14.0446 13.8036 13.7259 14.1341 13.3977C14.4646 13.0696 14.781 12.861 15.2075 12.6899C16.4403 12.2024 19.37 12.3126 20.7364 12.3126C22.1028 12.3126 25.0325 12.2024 26.2653 12.6899C26.6919 12.861 27.0107 13.0673 27.3388 13.3977C27.6693 13.7282 27.8755 14.0446 28.0466 14.4712C28.5341 15.704 28.4239 18.6337 28.4239 20.0001C28.4239 21.3665 28.5341 24.2938 28.0443 25.5266Z" fill="#294F74"/>
</svg>
