<svg width="41" height="40" viewBox="0 0 41 40" fill="none" xmlns="http://www.w3.org/2000/svg">
<rect x="0.738281" width="40" height="40" rx="4" fill="#F2F4F7"/>
<path d="M29.1821 12.7413L29.787 12.7014C29.7791 12.5826 29.7364 12.4688 29.6642 12.3742C29.592 12.2796 29.4934 12.2084 29.381 12.1695C29.2685 12.1307 29.147 12.1258 29.0318 12.1557C28.9166 12.1855 28.8128 12.2486 28.7333 12.3372L29.1821 12.7413ZM28.5796 16.3211C28.5796 16.1606 28.5159 16.0068 28.4025 15.8933C28.289 15.7799 28.1352 15.7162 27.9748 15.7162C27.8143 15.7162 27.6605 15.7799 27.5471 15.8933C27.4336 16.0068 27.3699 16.1606 27.3699 16.3211H28.5796ZM12.2724 26.0491V25.4442C12.1425 25.444 12.016 25.4857 11.9116 25.563C11.8073 25.6403 11.7305 25.7491 11.6928 25.8734C11.6551 25.9977 11.6584 26.1308 11.7022 26.2531C11.746 26.3754 11.828 26.4803 11.9361 26.5523L12.2724 26.0491ZM13.4797 12.7413L14.047 12.5296C14.0058 12.4191 13.9332 12.3231 13.8382 12.2534C13.7431 12.1837 13.6298 12.1432 13.512 12.1371C13.3943 12.1309 13.2773 12.1593 13.1755 12.2187C13.0737 12.2781 12.9915 12.366 12.9389 12.4715L13.4797 12.7413ZM18.3114 23.6295L18.7396 24.0565C18.8123 23.9836 18.8651 23.8934 18.8932 23.7944C18.9212 23.6954 18.9236 23.5908 18.9 23.4907C18.8763 23.3905 18.8276 23.298 18.7582 23.2219C18.6889 23.1459 18.6013 23.0888 18.5037 23.056L18.3114 23.6295ZM27.0505 13.9184L26.6029 14.3249L26.8207 14.5657L27.1413 14.5173L27.0505 13.9184ZM28.5796 12.7812C28.6413 13.7224 28.5833 14.2935 28.4308 14.7241C28.2832 15.1415 28.0244 15.4851 27.5562 15.9339L28.3933 16.8074C28.9232 16.2993 29.3321 15.8009 29.5716 15.1282C29.8051 14.4677 29.8535 13.7031 29.787 12.7014L28.5796 12.7812ZM28.5796 17.2018V16.3211H27.3699V17.203H28.5796V17.2018ZM20.1236 16.4203V17.5805H21.3333V16.4203H20.1236ZM20.1236 17.5805V18.1854H21.3333V17.5805H20.1236ZM24.4 12.1364C23.8378 12.1367 23.2811 12.2478 22.7618 12.4632C22.2425 12.6787 21.7707 12.9943 21.3734 13.3921C20.9761 13.7899 20.661 14.2621 20.4461 14.7816C20.2312 15.3012 20.1208 15.858 20.1211 16.4203H21.3309C21.3306 16.0168 21.4097 15.6172 21.5639 15.2443C21.718 14.8715 21.9441 14.5326 22.2292 14.2471C22.5143 13.9617 22.8529 13.7352 23.2256 13.5806C23.5983 13.426 23.9977 13.3463 24.4012 13.3462V12.1364H24.4ZM27.3687 17.2018C27.3699 22.4233 23.1443 26.654 17.9339 26.654V27.8638C23.8133 27.8638 28.5796 23.0899 28.5796 17.2018H27.3687ZM12.9135 12.953C13.5716 14.7096 16.0395 18.1854 20.7284 18.1854V16.9756C16.7169 16.9756 14.5963 13.9995 14.0458 12.5296L12.9135 12.953ZM12.9389 12.4715C11.6723 15.0072 11.4776 17.468 12.3982 19.5633C13.3164 21.6527 15.2919 23.2593 18.1202 24.2029L18.5037 23.056C15.8967 22.185 14.2479 20.7671 13.5051 19.0758C12.7647 17.3905 12.8724 15.3133 14.0216 13.0111L12.9389 12.4715ZM17.8831 23.2024C17.1549 23.9319 14.9652 25.4442 12.2724 25.4442V26.654C15.3765 26.654 17.8577 24.9409 18.7396 24.0565L17.8831 23.2024ZM27.4993 13.5131C27.1082 13.0794 26.6303 12.7326 26.0966 12.4955C25.5629 12.2583 24.9852 12.136 24.4012 12.1364V13.3462C25.2734 13.3462 26.0585 13.7224 26.6029 14.3249L27.4993 13.5131ZM27.1413 14.5173C28.1049 14.3598 28.9849 13.8754 29.6333 13.1454L28.7333 12.3372C28.272 12.8583 27.6461 13.2055 26.9598 13.3208L27.1413 14.5173ZM11.9361 26.5523C13.9212 27.8759 16.002 27.8638 17.9339 27.8638V26.654C15.9621 26.654 14.2467 26.6407 12.6087 25.5458L11.9361 26.5523Z" fill="#294F74"/>
</svg>
